<svg width="4096" height="2311" viewBox="0 0 4096 2311" fill="none" xmlns="http://www.w3.org/2000/svg">
<path fill-rule="evenodd" clip-rule="evenodd" d="M1965.5 535.291C2170.78 213.557 2530.7 0 2940.41 0C3578.08 0 4096 517.769 4096 1155.5C4096 1793.25 3578.08 2311 2940.41 2311C2494.35 2311 2107.12 2057.82 1914.45 1687.47H1992.82C2179.18 2018.41 2533.85 2242.11 2940.41 2242.11C3540.27 2242.11 4027.09 1755.23 4027.09 1155.5C4027.09 555.795 3540.27 68.8888 2940.41 68.8888C2571.25 68.8888 2244.73 253.454 2048.28 535.291H1965.5Z" fill="url(#paint0_linear_18137_701)"/>
<path d="M266.942 1521.46C260.009 1521.46 255.386 1518.37 253.075 1512.21L1.15544 725.318L0 720.695C0 715.296 3.46668 712.607 10.4002 712.607H72.8024C79.736 712.607 84.3584 715.675 86.6696 721.851L296.988 1398.97C297.744 1400.51 298.9 1401.28 300.454 1401.28C301.988 1401.28 303.144 1400.51 303.921 1398.97L514.24 721.851C516.551 715.675 521.173 712.607 528.107 712.607H589.353C597.82 712.607 600.909 716.83 598.598 725.318L344.367 1512.21C342.056 1518.37 337.433 1521.46 330.5 1521.46H266.942Z" fill="#070566"/>
<path d="M1236.49 712.607C1244.18 712.607 1248.04 716.452 1248.04 724.162V773.848C1248.04 781.538 1244.18 785.403 1236.49 785.403H1009.99C1006.9 785.403 1005.37 786.938 1005.37 790.026V1509.9C1005.37 1517.59 1001.5 1521.46 993.812 1521.46H934.877C927.166 1521.46 923.321 1517.59 923.321 1509.9V790.026C923.321 786.938 921.766 785.403 918.699 785.403H701.447C693.736 785.403 689.891 781.538 689.891 773.848V724.162C689.891 716.452 693.736 712.607 701.447 712.607H1236.49Z" fill="#070566"/>
<path d="M1417.92 1521.46C1410.21 1521.46 1406.36 1517.59 1406.36 1509.9V724.162C1406.36 716.452 1410.21 712.607 1417.92 712.607H1476.85C1484.54 712.607 1488.41 716.452 1488.41 724.162V1509.9C1488.41 1517.59 1484.54 1521.46 1476.85 1521.46H1417.92Z" fill="#070566"/>
<path d="M2906.32 724.162C2906.32 716.452 2910.17 712.607 2917.88 712.607H2976.82C2984.51 712.607 2988.37 716.452 2988.37 724.162V1509.9C2988.37 1517.59 2984.51 1521.46 2976.82 1521.46H2919.04C2913.64 1521.46 2909.01 1518.75 2905.17 1513.37L2511.11 872.066C2510.33 869.755 2509.18 868.788 2507.64 869.166C2506.09 869.566 2505.33 870.91 2505.33 873.221L2506.49 1509.9C2506.49 1517.59 2502.62 1521.46 2494.93 1521.46H2436C2428.29 1521.46 2424.44 1517.59 2424.44 1509.9V724.162C2424.44 716.452 2428.29 712.607 2436 712.607H2493.78C2499.16 712.607 2503.78 715.296 2507.64 720.695L2901.7 1362C2902.46 1364.31 2903.61 1365.28 2905.17 1364.88C2906.7 1364.5 2907.48 1363.15 2907.48 1360.84L2906.32 724.162Z" fill="#070566"/>
<path d="M1914.54 1528.49C1876.51 1524.23 1841.85 1513.81 1810.96 1497.19C1769.36 1474.83 1737.21 1443.45 1714.31 1403C1691.62 1362.56 1680.27 1315.77 1680.27 1262.62V971.435C1680.27 918.282 1691.62 871.474 1714.31 831.031C1737.21 790.589 1769.36 759.201 1810.96 736.868C1841.85 720.25 1876.51 709.809 1914.54 705.544V778.277C1875.25 784.937 1842.26 801.745 1815.58 828.72C1780.07 864.541 1762.42 911.727 1762.42 970.279V1266.09C1762.42 1324.62 1780.07 1371.62 1815.58 1407.06C1842.26 1433.74 1875.25 1450.38 1914.54 1456.98V1528.49ZM1998.58 705.838C2035.98 710.271 2069.81 720.607 2100.48 736.868C2142.3 759.201 2174.65 790.589 2197.56 831.031C2220.25 871.474 2231.59 918.282 2231.59 971.435V1262.62C2231.59 1315.77 2220.25 1362.56 2197.56 1403C2174.65 1443.45 2142.3 1474.83 2100.48 1497.19C2069.81 1513.43 2035.98 1523.78 1998.58 1528.2V1456.62C2037.45 1449.81 2070.23 1433.28 2096.28 1407.06C2131.79 1371.62 2149.44 1324.62 2149.44 1266.09V970.279C2149.44 911.727 2131.79 864.541 2096.28 828.72C2070.23 802.207 2037.45 785.504 1998.58 778.613V705.838Z" fill="#070566"/>
<defs>
<linearGradient id="paint0_linear_18137_701" x1="1914.45" y1="1155.5" x2="4095.98" y2="1155.5" gradientUnits="userSpaceOnUse">
<stop stop-color="#00FFFF"/>
<stop offset="0.19" stop-color="#0041B7"/>
<stop offset="0.37" stop-color="#00009E"/>
<stop offset="0.55" stop-color="#B1009E"/>
<stop offset="0.69" stop-color="#FF009E"/>
<stop offset="0.84" stop-color="#FF0075"/>
<stop offset="1" stop-color="#FF0000"/>
</linearGradient>
</defs>
</svg>
